<svg xmlns="http://www.w3.org/2000/svg" viewBox="0 0 1200 800" width="1200" height="800" role="img" aria-label="NineColors platform cover">
  <rect width="1200" height="800" fill="#18181b"/>
  <g stroke="#3f3f46" stroke-width="1">
    <path d="M0 200H1200M0 400H1200M0 600H1200"/>
    <path d="M300 0V800M600 0V800M900 0V800"/>
  </g>
  <g stroke="#fafafa" stroke-width="3" fill="none" opacity="0.85">
    <path d="M600 260C535 260 485 312 485 372C485 412 515 432 555 432H575C590 432 595 448 583 458C572 468 588 484 610 478C658 466 690 424 690 372C690 312 645 260 600 260Z" stroke-linejoin="round"/>
    <circle cx="540" cy="345" r="12"/>
    <circle cx="600" cy="312" r="12"/>
    <circle cx="660" cy="345" r="12"/>
    <circle cx="650" cy="408" r="12"/>
  </g>
  <text x="60" y="730" font-family="'Space Grotesk', sans-serif" font-weight="900" font-size="64" fill="#fafafa" letter-spacing="-2">NINECOLORS</text>
  <text x="60" y="80" font-family="'JetBrains Mono', monospace" font-size="20" fill="#a1a1aa" letter-spacing="6">CREATIVE STUDIO</text>
</svg>
