<svg xmlns="http://www.w3.org/2000/svg" viewBox="0 0 1200 800" width="1200" height="800" role="img" aria-label="Smart Nology cover">
  <rect width="1200" height="800" fill="#18181b"/>
  <g stroke="#3f3f46" stroke-width="1">
    <path d="M0 200H1200M0 400H1200M0 600H1200"/>
    <path d="M300 0V800M600 0V800M900 0V800"/>
  </g>
  <g stroke="#fafafa" stroke-width="3" fill="none" opacity="0.85">
    <rect x="540" y="310" width="120" height="120" rx="10"/>
    <circle cx="600" cy="370" r="22"/>
    <path d="M565 310V275M600 310V275M635 310V275M565 430V465M600 430V465M635 430V465M540 335H505M540 370H505M540 405H505M660 335H695M660 370H695M660 405H695" stroke-linecap="round"/>
  </g>
  <text x="60" y="730" font-family="'Space Grotesk', sans-serif" font-weight="900" font-size="64" fill="#fafafa" letter-spacing="-2">SMARTNOLOGY</text>
  <text x="60" y="80" font-family="'JetBrains Mono', monospace" font-size="20" fill="#a1a1aa" letter-spacing="6">TECH SOLUTIONS</text>
</svg>
