<svg xmlns="http://www.w3.org/2000/svg" viewBox="0 0 1200 800" width="1200" height="800" role="img" aria-label="Smart Raffle Tool cover">
  <rect width="1200" height="800" fill="#18181b"/>
  <g stroke="#3f3f46" stroke-width="1">
    <path d="M0 200H1200M0 400H1200M0 600H1200"/>
    <path d="M300 0V800M600 0V800M900 0V800"/>
  </g>
  <g stroke="#fafafa" stroke-width="3" fill="none" opacity="0.85">
    <path d="M470 330H730V362C712 362 700 374 700 390C700 406 712 418 730 418V450H470V418C488 418 500 406 500 390C500 374 488 362 470 362Z" stroke-linejoin="round"/>
    <path d="M600 330V450" stroke-dasharray="10 10"/>
  </g>
  <text x="60" y="730" font-family="'Space Grotesk', sans-serif" font-weight="900" font-size="64" fill="#fafafa" letter-spacing="-2">SMART RAFFLE</text>
  <text x="60" y="80" font-family="'JetBrains Mono', monospace" font-size="20" fill="#a1a1aa" letter-spacing="6">RAFFLE TOOL</text>
</svg>
